<svg width="114" height="114" viewBox="0 0 114 114" fill="none" xmlns="http://www.w3.org/2000/svg">
<path d="M114 57C114 45.7265 110.657 34.7061 104.394 25.3325C98.1305 15.9589 89.2283 8.65306 78.813 4.33887C68.3976 0.0246715 56.9368 -1.10412 45.8799 1.09524C34.8229 3.2946 24.6665 8.72332 16.6949 16.6949C8.72332 24.6665 3.2946 34.8229 1.09524 45.8799C-1.10412 56.9368 0.0246716 68.3976 4.33887 78.813C8.65306 89.2283 15.9589 98.1305 25.3325 104.394C34.7061 110.657 45.7265 114 57 114V95.4354C49.3982 95.4354 41.9671 93.1812 35.6464 88.9579C29.3257 84.7346 24.3994 78.7318 21.4903 71.7086C18.5812 64.6854 17.8201 56.9574 19.3031 49.5016C20.7861 42.0459 24.4468 35.1973 29.822 29.822C35.1973 24.4468 42.0459 20.7861 49.5016 19.3031C56.9574 17.8201 64.6854 18.5812 71.7086 21.4903C78.7318 24.3994 84.7346 29.3257 88.9579 35.6464C93.1812 41.9671 95.4354 49.3982 95.4354 57H114Z" fill="#FFB039"/>
<path d="M40.18 65C40.2333 63.9467 40.3267 62.98 40.46 62.1C40.6067 61.2067 40.8067 60.36 41.06 59.56C41.3267 58.7467 41.66 57.9533 42.06 57.18C42.4733 56.4067 42.98 55.6067 43.58 54.78H37.88V52.3H46.72V54.1C45.9867 54.9933 45.3933 55.8333 44.94 56.62C44.5 57.3933 44.1533 58.2 43.9 59.04C43.66 59.8667 43.4867 60.76 43.38 61.72C43.2733 62.6667 43.1933 63.76 43.14 65H40.18ZM52.5064 65.24C51.4664 65.24 50.5864 65.0733 49.8664 64.74C49.1464 64.3933 48.5331 63.9667 48.0264 63.46L49.3464 61.6C49.7331 61.9467 50.1464 62.2467 50.5864 62.5C51.0397 62.74 51.5397 62.86 52.0864 62.86C52.7397 62.86 53.2597 62.6933 53.6464 62.36C54.0331 62.0267 54.2264 61.5333 54.2264 60.88C54.2264 60.24 54.0397 59.7533 53.6664 59.42C53.3064 59.0867 52.8264 58.92 52.2264 58.92C52.0397 58.92 51.8731 58.9333 51.7264 58.96C51.5797 58.9733 51.4331 59.0067 51.2864 59.06C51.1531 59.1133 51.0064 59.18 50.8464 59.26C50.6997 59.34 50.5331 59.44 50.3464 59.56L49.0264 58.72L49.3864 52.3H56.5864V54.78H51.9264L51.7064 57.16C51.9464 57.0533 52.1731 56.98 52.3864 56.94C52.6131 56.8867 52.8597 56.86 53.1264 56.86C53.6731 56.86 54.1864 56.94 54.6664 57.1C55.1597 57.26 55.5931 57.5 55.9664 57.82C56.3397 58.14 56.6331 58.5467 56.8464 59.04C57.0597 59.5333 57.1664 60.12 57.1664 60.8C57.1664 61.5067 57.0397 62.1333 56.7864 62.68C56.5331 63.2267 56.1931 63.6933 55.7664 64.08C55.3397 64.4533 54.8397 64.74 54.2664 64.94C53.7064 65.14 53.1197 65.24 52.5064 65.24ZM61.8928 60C61.4261 60 60.9928 59.9067 60.5928 59.72C60.1928 59.5333 59.8461 59.26 59.5528 58.9C59.2728 58.54 59.0528 58.1067 58.8928 57.6C58.7328 57.08 58.6528 56.4933 58.6528 55.84C58.6528 55.1867 58.7328 54.6067 58.8928 54.1C59.0528 53.5933 59.2728 53.1667 59.5528 52.82C59.8461 52.46 60.1928 52.1867 60.5928 52C60.9928 51.8133 61.4261 51.72 61.8928 51.72C62.3595 51.72 62.7928 51.8133 63.1928 52C63.5928 52.1867 63.9328 52.46 64.2128 52.82C64.5061 53.1667 64.7328 53.5933 64.8928 54.1C65.0661 54.6067 65.1528 55.1867 65.1528 55.84C65.1528 56.4933 65.0661 57.08 64.8928 57.6C64.7328 58.1067 64.5061 58.54 64.2128 58.9C63.9328 59.26 63.5928 59.5333 63.1928 59.72C62.7928 59.9067 62.3595 60 61.8928 60ZM61.8928 58.36C62.2261 58.36 62.5061 58.1733 62.7328 57.8C62.9728 57.4267 63.0928 56.7733 63.0928 55.84C63.0928 54.9067 62.9728 54.26 62.7328 53.9C62.5061 53.54 62.2261 53.36 61.8928 53.36C61.5595 53.36 61.2728 53.54 61.0328 53.9C60.8061 54.26 60.6928 54.9067 60.6928 55.84C60.6928 56.7733 60.8061 57.4267 61.0328 57.8C61.2728 58.1733 61.5595 58.36 61.8928 58.36ZM62.3328 65.24L69.3728 51.72H71.0728L64.0328 65.24H62.3328ZM71.5128 65.24C71.0461 65.24 70.6128 65.1467 70.2128 64.96C69.8128 64.7733 69.4661 64.5 69.1728 64.14C68.8928 63.78 68.6728 63.3467 68.5128 62.84C68.3528 62.32 68.2728 61.7333 68.2728 61.08C68.2728 60.4267 68.3528 59.8467 68.5128 59.34C68.6728 58.8333 68.8928 58.4067 69.1728 58.06C69.4661 57.7 69.8128 57.4267 70.2128 57.24C70.6128 57.0533 71.0461 56.96 71.5128 56.96C71.9795 56.96 72.4128 57.0533 72.8128 57.24C73.2128 57.4267 73.5528 57.7 73.8328 58.06C74.1261 58.4067 74.3528 58.8333 74.5128 59.34C74.6861 59.8467 74.7728 60.4267 74.7728 61.08C74.7728 61.7333 74.6861 62.32 74.5128 62.84C74.3528 63.3467 74.1261 63.78 73.8328 64.14C73.5528 64.5 73.2128 64.7733 72.8128 64.96C72.4128 65.1467 71.9795 65.24 71.5128 65.24ZM71.5128 63.6C71.8461 63.6 72.1261 63.4133 72.3528 63.04C72.5928 62.6667 72.7128 62.0133 72.7128 61.08C72.7128 60.1467 72.5928 59.5 72.3528 59.14C72.1261 58.78 71.8461 58.6 71.5128 58.6C71.1795 58.6 70.8928 58.78 70.6528 59.14C70.4261 59.5 70.3128 60.1467 70.3128 61.08C70.3128 62.0133 70.4261 62.6667 70.6528 63.04C70.8928 63.4133 71.1795 63.6 71.5128 63.6Z" fill="#F5AB67"/>
</svg>
