<svg width="16" height="12" viewBox="0 0 16 12" fill="none" xmlns="http://www.w3.org/2000/svg">
<path d="M0.941537 11.5181L0 9.07014C1.17169 8.65168 2.06092 8.09722 2.66769 7.40676C3.27446 6.73722 3.56738 6.01537 3.54646 5.24122C3.50461 5.24122 3.46276 5.24122 3.42092 5.24122C3.37907 5.24122 3.33723 5.24122 3.29538 5.24122C2.56307 5.24122 1.91446 5.02153 1.34954 4.58215C0.784614 4.12184 0.502153 3.47323 0.502153 2.6363C0.502153 1.84123 0.784614 1.20307 1.34954 0.721845C1.91446 0.240615 2.59446 0 3.38953 0C4.43569 0 5.23076 0.387076 5.77476 1.16123C6.31876 1.93538 6.59076 3.00246 6.59076 4.36245C6.59076 6.07814 6.10953 7.56368 5.14707 8.81906C4.18461 10.0744 2.78276 10.9741 0.941537 11.5181Z" fill="white"/>
<path d="M10.3508 11.5181L9.40924 9.07014C10.5809 8.65168 11.4702 8.09722 12.0769 7.40676C12.6837 6.73722 12.9766 6.01537 12.9557 5.24122C12.9138 5.24122 12.872 5.24122 12.8302 5.24122C12.7883 5.24122 12.7465 5.24122 12.7046 5.24122C11.9723 5.24122 11.3237 5.02153 10.7588 4.58215C10.1939 4.12184 9.91139 3.47323 9.91139 2.6363C9.91139 1.84123 10.1939 1.20307 10.7588 0.721845C11.3237 0.240615 12.0037 0 12.7988 0C13.8449 0 14.64 0.387076 15.184 1.16123C15.728 1.93538 16 3.00246 16 4.36245C16 6.07814 15.5188 7.56368 14.5563 8.81906C13.5938 10.0744 12.192 10.9741 10.3508 11.5181Z" fill="white"/>
</svg>
