<svg width="105" height="33" viewBox="0 0 105 33" fill="none" xmlns="http://www.w3.org/2000/svg">
<path d="M0 25.4131V2.49561H5.16697V25.4131H0Z" fill="white"/>
<path d="M10.1505 25.4131V7.97893H14.3684L14.7199 10.1933H14.8605C15.6104 9.49036 16.4306 8.8811 17.321 8.36558C18.2349 7.82662 19.2777 7.55714 20.4493 7.55714C22.3474 7.55714 23.7182 8.18983 24.5618 9.45521C25.4288 10.6972 25.8623 12.4078 25.8623 14.587V25.4131H20.6954V15.2549C20.6954 13.9895 20.5196 13.1225 20.1681 12.6538C19.8401 12.1852 19.3011 11.9508 18.5512 11.9508C17.8951 11.9508 17.3327 12.1031 16.8641 12.4078C16.3954 12.689 15.8799 13.099 15.3175 13.638V25.4131H10.1505Z" fill="white"/>
<path d="M35.3972 25.8349C34.249 25.8349 33.0656 25.6123 31.8471 25.167C30.652 24.7218 29.6092 24.136 28.7188 23.4096L31.0386 20.1758C31.8354 20.7616 32.5969 21.2186 33.3234 21.5466C34.0732 21.8513 34.8113 22.0036 35.5378 22.0036C36.3111 22.0036 36.8735 21.8747 37.2249 21.6169C37.5764 21.3357 37.7522 20.9725 37.7522 20.5273C37.7522 20.1289 37.5764 19.8009 37.2249 19.5431C36.8969 19.2853 36.4634 19.051 35.9244 18.8401C35.3855 18.6058 34.8113 18.3715 34.2021 18.1371C33.4991 17.8559 32.7961 17.5044 32.0931 17.0826C31.4136 16.6609 30.8395 16.1219 30.3708 15.4658C29.9021 14.7862 29.6678 13.9661 29.6678 13.0053C29.6678 11.3884 30.2771 10.0762 31.4956 9.06857C32.7375 8.06095 34.3544 7.55714 36.3462 7.55714C37.6819 7.55714 38.8535 7.79147 39.8612 8.26013C40.8922 8.70536 41.771 9.20916 42.4974 9.77156L40.1775 12.8647C39.5682 12.3961 38.959 12.0328 38.3497 11.7751C37.7405 11.5173 37.1312 11.3884 36.522 11.3884C35.1863 11.3884 34.5184 11.8454 34.5184 12.7593C34.5184 13.3217 34.8465 13.7552 35.5026 14.0598C36.1822 14.341 36.9672 14.6456 37.8576 14.9737C38.6075 15.2314 39.3339 15.5712 40.0369 15.993C40.7633 16.3914 41.3609 16.9303 41.8295 17.6099C42.3216 18.266 42.5677 19.133 42.5677 20.211C42.5677 21.781 41.9584 23.1166 40.7399 24.218C39.5214 25.2959 37.7405 25.8349 35.3972 25.8349Z" fill="white"/>
<path d="M45.8492 25.4131V7.97893H51.0162V25.4131H45.8492ZM48.4151 5.41302C47.5481 5.41302 46.8451 5.16697 46.3061 4.67488C45.7672 4.18279 45.4977 3.52667 45.4977 2.70651C45.4977 1.88636 45.7672 1.23023 46.3061 0.73814C46.8451 0.246047 47.5481 0 48.4151 0C49.2821 0 49.9851 0.246047 50.5241 0.73814C51.063 1.23023 51.3325 1.88636 51.3325 2.70651C51.3325 3.52667 51.063 4.18279 50.5241 4.67488C49.9851 5.16697 49.2821 5.41302 48.4151 5.41302Z" fill="white"/>
<path d="M61.7848 32.8296C60.4257 32.8296 59.1955 32.6773 58.0941 32.3727C56.9928 32.068 56.114 31.5877 55.4579 30.9315C54.8018 30.2754 54.4737 29.4318 54.4737 28.4008C54.4737 26.9948 55.3056 25.8232 56.9693 24.8858V24.7452C56.5241 24.4406 56.1375 24.054 55.8094 23.5853C55.5048 23.1166 55.3525 22.5191 55.3525 21.7927C55.3525 21.16 55.5399 20.5507 55.9149 19.9649C56.2898 19.3791 56.7584 18.8987 57.3208 18.5238V18.3832C56.7116 17.9614 56.1609 17.3521 55.6688 16.5554C55.2002 15.7587 54.9658 14.8565 54.9658 13.8489C54.9658 12.4429 55.3056 11.283 55.9852 10.3691C56.6647 9.43178 57.5552 8.72879 58.6565 8.26013C59.7579 7.79147 60.9295 7.55714 62.1715 7.55714C63.2025 7.55714 64.1047 7.69774 64.878 7.97893H71.24V11.7399H68.4632C68.6273 11.9977 68.7561 12.3258 68.8499 12.7241C68.967 13.1225 69.0256 13.556 69.0256 14.0246C69.0256 15.3603 68.721 16.4617 68.1117 17.3287C67.5025 18.1957 66.6823 18.8401 65.6513 19.2619C64.6202 19.6837 63.4603 19.8946 62.1715 19.8946C61.4919 19.8946 60.7889 19.7774 60.0625 19.5431C59.6407 19.8946 59.4298 20.3281 59.4298 20.8436C59.4298 21.2889 59.629 21.6169 60.0273 21.8278C60.4257 22.0387 61.1053 22.1442 62.066 22.1442H64.878C67.0338 22.1442 68.6741 22.4957 69.7989 23.1987C70.9471 23.8782 71.5212 25.003 71.5212 26.573C71.5212 27.7681 71.1229 28.8343 70.3261 29.7716C69.5294 30.7324 68.4046 31.4822 66.9518 32.0212C65.4989 32.5601 63.7766 32.8296 61.7848 32.8296ZM62.1715 16.7663C62.851 16.7663 63.4134 16.5203 63.8586 16.0282C64.3273 15.5361 64.5616 14.8096 64.5616 13.8489C64.5616 12.935 64.3273 12.2437 63.8586 11.7751C63.4134 11.283 62.851 11.0369 62.1715 11.0369C61.4919 11.0369 60.9178 11.2713 60.4491 11.7399C60.0039 12.2086 59.7813 12.9116 59.7813 13.8489C59.7813 14.8096 60.0039 15.5361 60.4491 16.0282C60.9178 16.5203 61.4919 16.7663 62.1715 16.7663ZM62.5933 29.5959C63.7649 29.5959 64.7257 29.385 65.4755 28.9632C66.2254 28.5414 66.6003 28.0376 66.6003 27.4517C66.6003 26.9128 66.366 26.5496 65.8973 26.3621C65.4521 26.1746 64.796 26.0809 63.9289 26.0809H62.1363C61.5505 26.0809 61.0584 26.0575 60.66 26.0106C60.2851 25.9872 59.957 25.9403 59.6759 25.87C59.0432 26.4324 58.7268 27.0065 58.7268 27.5923C58.7268 28.2485 59.0783 28.7406 59.7813 29.0686C60.5077 29.4201 61.445 29.5959 62.5933 29.5959Z" fill="white"/>
<path d="M74.3395 25.4131V0.773289H79.5065V6.819L79.2604 9.9473C79.9166 9.36148 80.6781 8.82252 81.5451 8.33043C82.4356 7.8149 83.4667 7.55714 84.6383 7.55714C86.5364 7.55714 87.9072 8.18983 88.7508 9.45521C89.6178 10.6972 90.0513 12.4078 90.0513 14.587V25.4131H84.8843V15.2549C84.8843 13.9895 84.7086 13.1225 84.3571 12.6538C84.029 12.1852 83.4901 11.9508 82.7402 11.9508C82.0841 11.9508 81.5217 12.1031 81.0531 12.4078C80.5844 12.689 80.0689 13.099 79.5065 13.638V25.4131H74.3395Z" fill="white"/>
<path d="M101.134 25.8349C98.9777 25.8349 97.4312 25.2139 96.4938 23.9719C95.5799 22.73 95.123 21.1014 95.123 19.0862V12.0211H92.7328V8.18983L95.4042 7.97893L96.0017 3.3392H100.29V7.97893H104.473V12.0211H100.29V19.0159C100.29 20.0001 100.489 20.7148 100.888 21.16C101.309 21.5818 101.86 21.7927 102.54 21.7927C102.821 21.7927 103.102 21.7575 103.383 21.6872C103.688 21.6169 103.957 21.5349 104.192 21.4412L105 25.2022C104.555 25.3428 104.004 25.4834 103.348 25.624C102.715 25.7646 101.977 25.8349 101.134 25.8349Z" fill="white"/>
</svg>
