<svg width="1096" height="474" viewBox="0 0 1096 474" fill="none" xmlns="http://www.w3.org/2000/svg">
<circle cx="244" cy="17" r="7" fill="#2DC3F2"/>
<circle cx="614" cy="384" r="7" fill="#F5AB67"/>
<circle cx="1035" cy="17" r="7" fill="#3D349D"/>
<g filter="url(#filter0_d_236_246)">
<rect x="992" y="300" width="84" height="84" rx="10" fill="#F5AB67"/>
</g>
<path d="M1033.67 343.333H1023.05C1023.1 345.865 1023.49 348.379 1024.2 350.811L1026.52 351.211L1033.67 343.333ZM1033.67 343.333V351.876C1031.27 351.838 1028.88 351.616 1026.52 351.211L1033.67 343.333ZM1034.5 321.85H1034.5C1023.1 321.85 1013.85 331.095 1013.85 342.5C1013.85 353.905 1023.1 363.15 1034.5 363.15C1045.9 363.15 1055.15 353.905 1055.15 342.5V342.5C1055.14 331.101 1045.9 321.863 1034.5 321.85ZM1042.77 332.146L1042.77 332.146C1040.31 331.726 1037.83 331.496 1035.33 331.457V323.572C1039.04 324.016 1042.29 327.405 1044.2 332.396L1042.77 332.146ZM1026.23 332.146L1024.8 332.394C1026.71 327.402 1029.96 324.012 1033.67 323.569V331.457C1031.17 331.496 1028.69 331.726 1026.23 332.146L1026.23 332.146ZM1026.23 352.854L1026.23 352.854C1028.69 353.275 1031.17 353.506 1033.67 353.546V361.432C1029.96 360.987 1026.71 357.598 1024.8 352.607L1026.23 352.854ZM1042.77 352.854L1044.2 352.606C1042.29 357.598 1039.04 360.988 1035.33 361.431V353.546C1037.83 353.506 1040.31 353.275 1042.77 352.854L1042.77 352.854ZM1053.46 343.333C1053.37 345.466 1052.92 347.567 1052.12 349.548L1046.61 350.5C1047.22 348.159 1047.56 345.754 1047.62 343.333H1053.46ZM1015.54 343.333H1021.38C1021.44 345.754 1021.78 348.159 1022.39 350.5L1016.88 349.548C1016.08 347.567 1015.63 345.466 1015.54 343.333ZM1016.88 335.452L1022.39 334.5C1021.78 336.841 1021.44 339.246 1021.38 341.667H1015.54C1015.63 339.534 1016.08 337.433 1016.88 335.452ZM1044.8 334.189C1045.51 336.621 1045.9 339.135 1045.95 341.667H1035.33V333.124C1037.73 333.162 1040.12 333.384 1042.48 333.789L1044.8 334.189ZM1026.52 333.789C1028.88 333.384 1031.27 333.162 1033.67 333.124V341.667H1023.05C1023.1 339.135 1023.49 336.621 1024.2 334.189L1026.52 333.789ZM1042.48 351.211C1040.12 351.616 1037.73 351.838 1035.33 351.876V343.333H1045.95C1045.9 345.865 1045.51 348.379 1044.8 350.811L1042.48 351.211ZM1053.46 341.667H1047.62C1047.56 339.246 1047.22 336.841 1046.61 334.5L1052.12 335.452C1052.92 337.433 1053.37 339.534 1053.46 341.667ZM1046.07 332.716C1045.12 329.679 1043.43 326.931 1041.14 324.723C1045.48 326.355 1049.08 329.513 1051.26 333.613L1046.07 332.716ZM1022.93 332.716L1017.74 333.613C1019.92 329.513 1023.52 326.355 1027.86 324.723C1025.57 326.931 1023.88 329.679 1022.93 332.716ZM1022.93 352.284C1023.88 355.321 1025.57 358.069 1027.86 360.277C1023.52 358.645 1019.92 355.487 1017.74 351.387L1022.93 352.284ZM1046.07 352.284L1051.26 351.387C1049.08 355.487 1045.48 358.645 1041.14 360.277C1043.43 358.069 1045.12 355.321 1046.07 352.284Z" fill="white" stroke="white" stroke-width="0.3"/>
<g filter="url(#filter1_d_236_246)">
<rect x="20" y="10" width="84" height="84" rx="10" fill="#C63973"/>
</g>
<path d="M58.7426 43.9643L58.7426 43.9643L58.7417 43.9615C58.1624 42.2068 57.868 40.3653 57.868 38.4876C57.868 37.0055 56.6626 35.8 55.1805 35.8H49.4874C48.0055 35.8 46.8 37.0055 46.8 38.4874C46.8 54.32 59.6801 67.2 75.5126 67.2C76.9946 67.2 78.2001 65.9945 78.2001 64.5125V58.8354C78.2 57.3534 76.9945 56.1479 75.5126 56.1479C73.6358 56.1479 71.7938 55.8545 70.0487 55.2779C69.1069 54.9571 68.0296 55.1985 67.3958 55.8346L64.024 58.3801C60.1202 56.2751 57.6944 53.8499 55.618 49.9762L58.0869 46.6943C58.7958 45.9789 59.0484 44.9384 58.7426 43.9643ZM56.4962 45.2959L56.488 45.3045L63.7336 60.3987L63.6409 60.5759C63.6412 60.576 63.6414 60.5762 63.6416 60.5763C64.0023 60.7646 64.4414 60.7241 64.7657 60.4793L64.766 60.4791L68.7764 57.4408L68.7873 57.4325L68.797 57.4228C68.9461 57.2738 69.17 57.2205 69.3716 57.2891L69.3733 57.2897C71.3439 57.9406 73.4094 58.2702 75.5126 58.2702C75.8242 58.2702 76.0778 58.5238 76.0778 58.8355V64.5126C76.0778 64.8242 75.8242 65.0778 75.5126 65.0778C60.8504 65.0778 48.9223 53.1496 48.9223 38.4875C48.9223 38.1758 49.1758 37.9223 49.4875 37.9223H55.1806C55.4923 37.9223 55.7458 38.1758 55.7458 38.4875C55.7458 40.5908 56.0761 42.6557 56.7224 44.6125C56.7845 44.8135 56.7462 45.0357 56.4962 45.2959Z" fill="white" stroke="white" stroke-width="0.4"/>
<defs>
<filter id="filter0_d_236_246" x="912" y="290" width="184" height="184" filterUnits="userSpaceOnUse" color-interpolation-filters="sRGB">
<feFlood flood-opacity="0" result="BackgroundImageFix"/>
<feColorMatrix in="SourceAlpha" type="matrix" values="0 0 0 0 0 0 0 0 0 0 0 0 0 0 0 0 0 0 127 0" result="hardAlpha"/>
<feOffset dx="-30" dy="40"/>
<feGaussianBlur stdDeviation="25"/>
<feColorMatrix type="matrix" values="0 0 0 0 0.960784 0 0 0 0 0.670588 0 0 0 0 0.403922 0 0 0 0.3 0"/>
<feBlend mode="normal" in2="BackgroundImageFix" result="effect1_dropShadow_236_246"/>
<feBlend mode="normal" in="SourceGraphic" in2="effect1_dropShadow_236_246" result="shape"/>
</filter>
<filter id="filter1_d_236_246" x="0" y="0" width="184" height="184" filterUnits="userSpaceOnUse" color-interpolation-filters="sRGB">
<feFlood flood-opacity="0" result="BackgroundImageFix"/>
<feColorMatrix in="SourceAlpha" type="matrix" values="0 0 0 0 0 0 0 0 0 0 0 0 0 0 0 0 0 0 127 0" result="hardAlpha"/>
<feOffset dx="30" dy="40"/>
<feGaussianBlur stdDeviation="25"/>
<feColorMatrix type="matrix" values="0 0 0 0 0.776471 0 0 0 0 0.223529 0 0 0 0 0.45098 0 0 0 0.3 0"/>
<feBlend mode="normal" in2="BackgroundImageFix" result="effect1_dropShadow_236_246"/>
<feBlend mode="normal" in="SourceGraphic" in2="effect1_dropShadow_236_246" result="shape"/>
</filter>
</defs>
</svg>
